<svg width="35" height="35" viewBox="0 0 35 35" fill="none" xmlns="http://www.w3.org/2000/svg">
<g id="mdi:filter-outline">
<path id="Vector" d="M21.8749 28.9917C21.9333 29.4292 21.7874 29.8958 21.452 30.2021C21.3171 30.3373 21.1569 30.4445 20.9804 30.5177C20.804 30.5909 20.6149 30.6286 20.4239 30.6286C20.2329 30.6286 20.0438 30.5909 19.8674 30.5177C19.6909 30.4445 19.5307 30.3373 19.3958 30.2021L13.5479 24.3542C13.3889 24.1986 13.268 24.0084 13.1947 23.7985C13.1213 23.5885 13.0974 23.3645 13.1249 23.1438V15.6771L6.13953 6.7375C5.90271 6.43348 5.79585 6.04808 5.8423 5.66552C5.88876 5.28296 6.08475 4.93434 6.38745 4.69583C6.66453 4.49167 6.97078 4.375 7.29161 4.375H27.7083C28.0291 4.375 28.3354 4.49167 28.6124 4.69583C28.9151 4.93434 29.1111 5.28296 29.1576 5.66552C29.204 6.04808 29.0972 6.43348 28.8604 6.7375L21.8749 15.6771V28.9917ZM10.2666 7.29167L16.0416 14.6708V22.7208L18.9583 25.6375V14.6563L24.7333 7.29167H10.2666Z" fill="black"/>
</g>
</svg>
