<svg width="60" height="60" viewBox="0 0 60 60" fill="none" xmlns="http://www.w3.org/2000/svg">
<g id="mdi:bell-notification">
<path id="Vector" d="M52.5 16.25C52.5 21.075 48.575 25 43.75 25C38.925 25 35 21.075 35 16.25C35 11.425 38.925 7.50001 43.75 7.50001C48.575 7.50001 52.5 11.425 52.5 16.25ZM47.5 29.475C46.25 29.8 45 30 43.75 30C40.1053 29.9934 36.6118 28.5426 34.0346 25.9654C31.4574 23.3882 30.0066 19.8947 30 16.25C30 12.575 31.45 9.25001 33.75 6.77501C33.2963 6.21886 32.7243 5.77094 32.0755 5.46387C31.4268 5.15681 30.7177 4.99834 30 5.00001C27.25 5.00001 25 7.25001 25 10V10.725C17.575 12.925 12.5 19.75 12.5 27.5V42.5L7.5 47.5V50H52.5V47.5L47.5 42.5V29.475ZM30 57.5C32.775 57.5 35 55.275 35 52.5H25C25 53.8261 25.5268 55.0979 26.4645 56.0355C27.4021 56.9732 28.6739 57.5 30 57.5Z" fill="white"/>
</g>
</svg>
