<svg width="84" height="84" viewBox="0 0 84 84" fill="none" xmlns="http://www.w3.org/2000/svg">
<g id="ix:user-profile-filled">
<path id="Vector" fill-rule="evenodd" clip-rule="evenodd" d="M41.9999 7C46.5962 6.99998 51.1475 7.90526 55.3939 9.66416C59.6403 11.4231 63.4987 14.0011 66.7487 17.2512C69.9988 20.5012 72.5769 24.3596 74.3358 28.606C76.0947 32.8524 77.0001 37.4037 77.0001 41.9999C77.0001 61.3299 61.3299 77.0001 41.9999 77.0001C22.6701 77.0001 7 61.3299 7 41.9999C7 22.6701 22.6701 7 41.9999 7ZM45.5001 45.5001H38.5C29.835 45.5001 22.396 50.7479 19.1874 58.2392C24.2641 65.358 32.59 70 41.9999 70C51.4099 70 59.7358 65.358 64.8127 58.2387C61.6041 50.7479 54.165 45.5001 45.5001 45.5001ZM41.9999 17.5C36.201 17.5 31.4999 22.201 31.4999 28C31.4999 33.799 36.201 38.5 41.9999 38.5C47.7989 38.5 52.4999 33.799 52.4999 28C52.4999 22.201 47.7991 17.5 41.9999 17.5Z" fill="#FFFDFD"/>
</g>
</svg>
